<?xml version="1.0" encoding="iso-8859-1"?>
<!-- Generator: Adobe Illustrator 19.0.0, SVG Export Plug-In . SVG Version: 6.00 Build 0)  -->
<svg version="1.1" id="Layer_1" xmlns="http://www.w3.org/2000/svg" xmlns:xlink="http://www.w3.org/1999/xlink" x="0px" y="0px"
	 viewBox="0 0 512.001 512.001" style="enable-background:new 0 0 512.001 512.001;" xml:space="preserve">
<g>
	<g>
		<path d="M464.439,250.423L258.124,0l-5.437,11.212c-13.888,28.642-17.47,61.468-10.085,92.429
			c7.345,30.796,25.2,58.34,50.305,77.617l60.816,59.903H93.481v-6.131c18.218-3.714,31.971-19.862,31.971-39.161v-43.352
			l-20.826-11.39l-4.234,4.234c-2.515,2.516-5.861,3.901-9.419,3.901s-6.904-1.385-9.42-3.901c-5.194-5.194-5.194-13.645,0-18.839
			l35.785-35.784l-4.125-5.541c-6.65-8.932-16.849-14.23-27.98-14.535C74.097,70.36,63.628,75.089,56.5,83.645l-32.289,38.747
			v146.051c-13.238,14.652-21.314,34.054-21.314,55.311c0,45.541,37.051,82.592,82.592,82.592h66.606v4.974l53.116,37.559
			l9.387-16.023c2.492,6.484,6.39,14.118,16.528,17.418c11.614,3.783,19.955-1.852,26.046-5.966
			c5.78-3.903,8.326-5.258,12.151-4.015c3.827,1.246,5.086,3.842,7.46,10.399c2.503,6.911,5.931,16.376,17.542,20.157
			c11.613,3.78,19.955-1.853,26.047-5.966c5.78-3.902,8.326-5.26,12.152-4.013c3.828,1.246,5.086,3.841,7.461,10.399
			c2.503,6.91,5.931,16.376,17.542,20.156c11.615,3.781,19.956-1.851,26.048-5.966c5.78-3.903,8.324-5.258,12.155-4.013
			c3.829,1.247,5.088,3.842,7.463,10.4c2.503,6.911,5.932,16.376,17.544,20.157l4.949-15.201c-3.829-1.246-5.088-3.842-7.463-10.399
			c-2.503-6.911-5.932-16.376-17.545-20.157c-11.613-3.779-19.955,1.853-26.048,5.966c-5.78,3.902-8.326,5.259-12.155,4.013
			c-3.827-1.246-5.086-3.842-7.46-10.399c-2.503-6.911-5.931-16.376-17.542-20.157c-11.613-3.778-19.954,1.852-26.047,5.966
			c-5.78,3.903-8.324,5.26-12.153,4.015c-3.827-1.246-5.086-3.842-7.46-10.399c-2.503-6.911-5.931-16.376-17.542-20.157
			c-11.612-3.778-19.954,1.854-26.046,5.967c-5.78,3.903-8.326,5.261-12.152,4.013c-3.826-1.245-5.084-3.841-7.459-10.397
			c-1.005-2.774-2.17-5.957-3.941-9.022l3.692-6.303v-3.004h198.148c45.541,0,82.592-37.051,82.592-82.592
			C509.104,291.881,490.944,264.187,464.439,250.423z M303.408,169.163l-0.403-0.308c-21.902-16.687-36.789-39.747-43.697-64.946
			l86.955,86.955l11.303-11.303L255.034,77.03c-0.735-15.749,1.541-31.742,7.07-47.06l174.492,211.796
			c-0.512-0.062-1.026-0.111-1.54-0.163c-0.064-0.006-0.128-0.014-0.193-0.02c-1.295-0.129-2.595-0.229-3.901-0.297
			c-0.179-0.01-0.359-0.016-0.538-0.025c-1.299-0.06-2.601-0.099-3.911-0.099h-50.01L303.408,169.163z M68.78,93.879
			c3.974-4.769,9.828-7.401,16.015-7.236c3.87,0.105,7.538,1.295,10.65,3.383L70.25,115.219c-11.427,11.426-11.427,30.02,0,41.446
			c5.535,5.535,12.895,8.584,20.723,8.584c5.727,0,11.203-1.632,15.897-4.674l2.597,1.421v33.874
			c0,13.222-10.756,23.978-23.978,23.978h-7.993v21.692c-13.43,1.28-26.158,5.778-37.299,13.123V128.179h-0.001L68.78,93.879z
			 M209.08,410.644l-8.86,15.125l-27.471-19.425h37.73L209.08,410.644z M426.512,390.36H85.488
			c-36.726,0-66.606-29.88-66.606-66.606c0-35.559,28.01-64.698,63.125-66.515c0.02-0.001,0.042-0.003,0.062-0.004
			c1.133-0.058,2.273-0.086,3.42-0.086h341.024c1.205,0,2.403,0.037,3.597,0.1c0.54,0.029,1.074,0.081,1.61,0.123
			c0.631,0.048,1.262,0.094,1.889,0.159c0.682,0.072,1.358,0.166,2.033,0.259c0.465,0.064,0.929,0.125,1.392,0.197
			c0.746,0.119,1.487,0.255,2.224,0.399c0.379,0.074,0.759,0.148,1.137,0.228c0.777,0.165,1.548,0.343,2.315,0.536
			c0.331,0.083,0.661,0.171,0.99,0.259c0.791,0.211,1.578,0.432,2.357,0.67c0.291,0.089,0.58,0.189,0.87,0.281
			c0.807,0.26,1.611,0.525,2.405,0.815c0.168,0.062,0.336,0.132,0.503,0.196c25.256,9.474,43.283,33.858,43.283,62.382
			C493.118,360.48,463.239,390.36,426.512,390.36z"/>
	</g>
</g>
<g>
	<g>
		<path d="M74.831,299.775c-13.222,0-23.978,10.756-23.978,23.978s10.756,23.978,23.978,23.978s23.978-10.756,23.978-23.978
			S88.053,299.775,74.831,299.775z M74.831,331.746c-4.408,0-7.993-3.585-7.993-7.993s3.585-7.993,7.993-7.993
			s7.993,3.585,7.993,7.993S79.239,331.746,74.831,331.746z"/>
	</g>
</g>
<g>
	<g>
		<path d="M437.169,299.775c-13.222,0-23.978,10.756-23.978,23.978s10.756,23.978,23.978,23.978s23.978-10.756,23.978-23.978
			S450.391,299.775,437.169,299.775z M437.169,331.746c-4.408,0-7.993-3.585-7.993-7.993s3.585-7.993,7.993-7.993
			s7.993,3.585,7.993,7.993S441.577,331.746,437.169,331.746z"/>
	</g>
</g>
<g>
	<g>
		
			<rect x="359.907" y="193.672" transform="matrix(0.7071 -0.7071 0.7071 0.7071 -34.5187 319.0765)" width="15.985" height="15.069"/>
	</g>
</g>
<g>
</g>
<g>
</g>
<g>
</g>
<g>
</g>
<g>
</g>
<g>
</g>
<g>
</g>
<g>
</g>
<g>
</g>
<g>
</g>
<g>
</g>
<g>
</g>
<g>
</g>
<g>
</g>
<g>
</g>
</svg>
