<svg xmlns="http://www.w3.org/2000/svg" data-name="Layer 1" viewBox="0 0 100 125" x="0px" y="0px"><title>cook_export_160218</title><path d="M67.93,61.25a0.52,0.52,0,0,0-.87,0l-4,7a0.5,0.5,0,0,0,.43.75h8a0.5,0.5,0,0,0,.43-0.75ZM64.36,68l3.14-5.49L70.64,68H64.36Z"/><path d="M49.5,54a0.5,0.5,0,0,0,.5-0.5v-3a0.5,0.5,0,0,0-1,0v3A0.5,0.5,0,0,0,49.5,54Z"/><path d="M67.5,54a0.5,0.5,0,0,0,.5-0.5v-3a0.5,0.5,0,0,0-1,0v3A0.5,0.5,0,0,0,67.5,54Z"/><path d="M31.5,54a0.5,0.5,0,0,0,.5-0.5v-3a0.5,0.5,0,0,0-1,0v3A0.5,0.5,0,0,0,31.5,54Z"/><path d="M58.5,54a0.5,0.5,0,0,0,.5-0.5V52a0.5,0.5,0,0,0-1,0v1.5A0.5,0.5,0,0,0,58.5,54Z"/><path d="M76.5,54a0.5,0.5,0,0,0,.5-0.5V52a0.5,0.5,0,0,0-1,0v1.5A0.5,0.5,0,0,0,76.5,54Z"/><path d="M40.5,54a0.5,0.5,0,0,0,.5-0.5V52a0.5,0.5,0,0,0-1,0v1.5A0.5,0.5,0,0,0,40.5,54Z"/><path d="M22.5,54a0.5,0.5,0,0,0,.5-0.5V52a0.5,0.5,0,0,0-1,0v1.5A0.5,0.5,0,0,0,22.5,54Z"/><path d="M75.82,32.74C68,26.31,60.38,28.21,55,29.94L65.66,25a0.5,0.5,0,0,0-.37-0.93L51,28.81V21.5a0.5,0.5,0,0,0-.5-0.5h-2a0.5,0.5,0,0,0-.5.5v7.33L33.71,24.64a0.5,0.5,0,0,0-.33.94l11.34,4.78c-5.94-1.58-14.6-3.59-21.75,3.8-5.7,5.9-8.07,12.3-7.91,21.4,0.22,12.67,8.82,23.9,21.9,28.6,3.44,1.24,9.05.75,12.06,0.48,0.69-.06,1.22-0.11,1.52-0.11s1,0.06,1.87.14C53.9,84.82,56,85,58.21,85a17,17,0,0,0,6-.86C76.9,79.07,85.27,67.09,85,54.35,84.87,44.51,82,37.85,75.82,32.74ZM48.36,30A0.5,0.5,0,0,0,49,29.5V22h1v7.5a0.5,0.5,0,0,0,.66.47l6.64-2.19-7.69,3.56-7.74-3.26ZM23.68,34.86C30.65,27.65,39.3,30,45,31.48a22.15,22.15,0,0,0,4.56.9h0.06a17.59,17.59,0,0,0,4.53-1.12c5.19-1.71,13-4.3,21,2.25,6,5,8.69,11.21,8.86,20.85,0,0.88,0,1.76-.09,2.64H16.14c0-.48-0.08-1-0.09-1.45C15.9,46.74,18.18,40.55,23.68,34.86ZM63.85,83.24c-3.07,1.23-8.46.72-11.35,0.45-0.88-.08-1.53-0.14-1.92-0.14H50.52c-0.31,0-.87.05-1.59,0.12-2.73.24-8.4,0.74-11.64-.43C25.46,79,17.41,69.23,16.21,58H83.84C82.59,68.92,74.93,78.78,63.85,83.24Z"/><text x="0" y="115" fill="#000000" font-size="5px" font-weight="bold" font-family="'Helvetica Neue', Helvetica, Arial-Unicode, Arial, Sans-serif">Created by Yana Marudova</text><text x="0" y="120" fill="#000000" font-size="5px" font-weight="bold" font-family="'Helvetica Neue', Helvetica, Arial-Unicode, Arial, Sans-serif">from the Noun Project</text></svg>